<svg xmlns="http://www.w3.org/2000/svg" aria-hidden="true" style="position:absolute;width:0;height:0;overflow:hidden">
  <defs>
    <symbol id="icon-twitter" viewBox="0 0 32 32">
      <path d="M32 6.078c-1.1 0.493-2.376 0.857-3.713 1.028l-0.068 0.007c1.36-0.817 2.382-2.078 2.873-3.579l0.013-0.046c-1.197 0.722-2.591 1.273-4.076 1.573l-0.084 0.014c-1.2-1.279-2.9-2.076-4.787-2.076-3.622 0-6.558 2.936-6.558 6.558 0 0.001 0 0.003 0 0.004v-0c0 0.52 0.043 1.021 0.152 1.496-5.454-0.266-10.28-2.88-13.522-6.861-0.564 0.949-0.899 2.092-0.902 3.313v0.001c0 2.272 1.171 4.286 2.914 5.451-1.091-0.030-2.107-0.325-2.994-0.823l0.033 0.017v0.072c0.003 3.165 2.236 5.807 5.213 6.44l0.043 0.008c-0.499 0.136-1.071 0.215-1.662 0.215-0.020 0-0.041-0-0.061-0l0.003 0c-0.419 0-0.843-0.024-1.242-0.112 0.85 2.598 3.261 4.509 6.13 4.57-2.215 1.746-5.045 2.8-8.122 2.8-0.004 0-0.008 0-0.013 0h0.001c-0.018 0-0.040 0-0.062 0-0.531 0-1.055-0.034-1.569-0.099l0.061 0.006c2.826 1.846 6.287 2.944 10.004 2.944 0.021 0 0.042-0 0.063-0h-0.003c12.072 0 18.672-10 18.672-18.669 0-0.288-0.010-0.57-0.024-0.848 1.299-0.936 2.39-2.064 3.258-3.355l0.030-0.047z"></path>
    </symbol>
    <symbol id="icon-facebook" viewBox="0 0 32 32">
      <path d="M26.737 4H5.264A1.356 1.356 0 0 0 4 5.264v21.473A1.27 1.27 0 0 0 5.263 28h11.495v-9.347h-3.033v-3.536h3.158v-2.653a4.35 4.35 0 0 1 4.674-4.8c1.263 0 2.4.126 2.778.126v3.285H22.44c-1.516 0-1.769.758-1.769 1.769v2.273h3.537l-.505 3.663h-3.157V28h6.189a1.27 1.27 0 0 0 1.263-1.263V5.264A1.356 1.356 0 0 0 26.734 4z"/>
    </symbol>
    <symbol id="icon-instagram" viewBox="0 0 32 32">
      <path d="M1.667 9.939c0-4.552 3.72-8.273 8.273-8.273h12.121c4.552 0 8.273 3.72 8.273 8.273V22.06c0 4.552-3.72 8.273-8.273 8.273H9.94c-4.552 0-8.273-3.72-8.273-8.273V9.939zm8.272-6.272c-3.448 0-6.273 2.825-6.273 6.273v12.121c0 3.448 2.825 6.273 6.273 6.273H22.06c3.448 0 6.273-2.825 6.273-6.273V9.94c0-3.448-2.825-6.273-6.273-6.273H9.939zm6.061 17a4.667 4.667 0 1 0 0-9.334 4.667 4.667 0 0 0 0 9.334zm0 2a6.667 6.667 0 1 0 0-13.334 6.667 6.667 0 0 0 0 13.334zm6.667-13.334a1.333 1.333 0 1 0 0-2.667 1.333 1.333 0 0 0 0 2.667z"/>
    </symbol>
    <symbol id="icon-person-solid" viewBox="0 0 31 32">
      <path fill="#6e7491" d="M19.394 11.152a3.88 3.88 0 1 1-7.759 0 3.88 3.88 0 0 1 7.759 0zM9.697 23.758c-1.071 0-1.964-.882-1.7-1.92a7.76 7.76 0 0 1 15.036 0c.264 1.038-.629 1.92-1.7 1.92H9.697z" style="fill:var(--color1, #6e7491)"/>
    </symbol>
    <symbol id="icon-calendar-with-dates" viewBox="0 0 31 32">
      <path fill="#6e7491" d="M9.697 6.088c0-.417.568-.754.97-.754s.97.338.97.754v1.508H9.698V6.088zM19.394 6.088c0-.417.568-.754.97-.754s.97.338.97.754v1.508h-1.939V6.088zM9.697 7.596h13.818a.74.74 0 0 1 .727.754v16.593a.74.74 0 0 1-.727.754h-16a.74.74 0 0 1-.727-.754V8.35a.74.74 0 0 1 .727-.754h2.182zm13.091 4.525H8.243v12.067h14.545V12.121z" style="fill:var(--color1, #6e7491)"/>
      <path fill="#6e7491" d="M9.697 15.515a1.455 1.455 0 1 1 2.91 0 1.455 1.455 0 0 1-2.91 0zM21.333 18.424a1.455 1.455 0 1 0-2.91 0 1.455 1.455 0 0 0 2.91 0z" style="fill:var(--color1, #6e7491)"/>
    </symbol>
    <symbol id="icon-arrival" viewBox="0 0 32 32">
      <path fill="#6e7491" d="M7.119 9.676a.446.446 0 0 0-.579.358l-.491 3.273c-.07.469.208.92.659 1.066l16.736 5.438a1.489 1.489 0 1 0 .841-2.855l-5.151-1.363-1.288-9.089a.998.998 0 0 0-1.98.045l-.737 7.742-7.036-1.884-.682-2.428a.445.445 0 0 0-.292-.304zm18.265 13.065H5.476v1.531h19.908v-1.531z" style="fill:var(--color1, #6e7491)"/>
    </symbol>
    <symbol id="icon-departure" viewBox="0 0 31 32">
      <path fill="#6e7491" d="M4.163 15.821a.446.446 0 0 0-.221.644l1.695 2.842a.97.97 0 0 0 1.186.406l16.39-6.407a1.49 1.49 0 1 0-1.16-2.742l-4.847 2.212-6.759-6.212a.998.998 0 0 0-1.503 1.29l4.339 6.454-6.635 3.005-2.067-1.445a.445.445 0 0 0-.418-.05zm20.736 6.92H4.991v1.531h19.908v-1.531z" style="fill:var(--color1, #6e7491)"/>
    </symbol>
    <symbol id="icon-Logo" viewBox="0 0 78 32">
      <path fill="#605dec" d="M11.646 9.662H7.111V7.111h12.272v2.551h-4.535v11.077a.534.534 0 0 1-.534.534 2.668 2.668 0 0 1-2.668-2.668V9.662zM26.296 12.513c.047.639-.422 1.2-1.06 1.266l-.6.062c-.862.08-1.471.321-1.826.723-.356.388-.534.911-.534 1.567v4.55a.593.593 0 0 1-.593.593h-1.321a1.185 1.185 0 0 1-1.185-1.185v-8.085c0-.327.265-.593.593-.593h1.79c.327 0 .593.265.593.593v1.075c.506-1.138 1.553-1.761 3.14-1.868a.91.91 0 0 1 .969.842l.034.461zM27.414 12.002c0-.327.265-.593.593-.593h1.914c.327 0 .593.265.593.593v8.678a.593.593 0 0 1-.593.593H28.6a1.185 1.185 0 0 1-1.185-1.185v-8.085zM39.124 11.169c.862 0 1.628.221 2.298.663.684.429 1.211 1.038 1.58 1.828.383.777.575 1.674.575 2.692s-.192 1.915-.575 2.692c-.369.763-.889 1.353-1.56 1.768s-1.443.623-2.319.623a4.271 4.271 0 0 1-1.867-.402 3.121 3.121 0 0 1-1.272-1.165v4.506a.516.516 0 0 1-.516.516 2.582 2.582 0 0 1-2.582-2.582V12.004c0-.327.265-.593.593-.593h1.873c.327 0 .593.265.593.593v.793a3.047 3.047 0 0 1 1.293-1.185c.561-.295 1.19-.442 1.888-.442zm-.903 7.955c.725 0 1.286-.234 1.683-.703.397-.482.595-1.172.595-2.069 0-.911-.198-1.614-.595-2.109-.397-.509-.958-.763-1.683-.763s-1.286.248-1.683.743c-.397.482-.595 1.178-.595 2.089 0 .897.198 1.594.595 2.089.397.482.958.723 1.683.723zM56.461 11.169c1.149 0 2.004.341 2.565 1.024s.841 1.728.841 3.134v4.761c0 .655-.53 1.185-1.185 1.185h-.728a1.185 1.185 0 0 1-1.185-1.185v-4.66c0-.67-.109-1.152-.328-1.446-.205-.295-.561-.442-1.067-.442-.962 0-1.297.898-1.297 2.29v4.259c0 .655-.531 1.185-1.185 1.185h-.728a1.185 1.185 0 0 1-1.185-1.185v-4.66c0-.67-.109-1.152-.328-1.446-.205-.295-.561-.442-1.067-.442-.962 0-1.297.898-1.297 2.29v4.259c0 .655-.531 1.185-1.185 1.185h-.728a1.185 1.185 0 0 1-1.185-1.185v-6.9c0-.982.796-1.778 1.778-1.778h.646c.327 0 .593.265.593.593v.733c.678-1.097.983-1.567 2.508-1.567 1.491 0 2.49.609 2.996 1.828.698-1.196 1.135-1.828 2.754-1.828zM66.106 11.169c1.505 0 2.613.348 3.325 1.045.725.696 1.087 1.774 1.087 3.234v4.329c0 .982-.796 1.778-1.778 1.778h-1.157v-1.748a2.47 2.47 0 0 1-1.026 1.205c-.479.281-1.039.422-1.682.422a4.279 4.279 0 0 1-1.868-.402 3.324 3.324 0 0 1-1.313-1.125 2.875 2.875 0 0 1-.472-1.607c0-.723.185-1.292.555-1.707.383-.415.991-.716 1.826-.904s1.977-.281 3.427-.281h.533v-.362c0-.589-.13-1.004-.39-1.245s-.711-.362-1.354-.362c-.492 0-1.04.087-1.642.261-.2.058-.396.123-.59.195-.622.233-1.354-.017-1.603-.633-.203-.501-.014-1.081.483-1.293a9.793 9.793 0 0 1 1.279-.439c.848-.241 1.635-.362 2.36-.362zm-.554 8.176c.602 0 1.088-.194 1.457-.583.37-.402.554-.917.554-1.547v-.341h-.348c-1.109 0-1.888.087-2.34.261-.438.174-.657.489-.657.944 0 .362.123.663.369.904.26.241.581.362.964.362zM30.519 8.889a1.48 1.48 0 1 1-2.962 0 1.48 1.48 0 0 1 2.962 0z" style="fill:var(--color2, #605dec)"/>
    </symbol>
  </defs>
</svg>
